<svg width="500" height="500" viewBox="0 0 500 500" fill="none" xmlns="http://www.w3.org/2000/svg">
<rect width="500" height="500" rx="150" fill="url(#paint0_linear_2004_64)"/>
<path d="M211.029 92.4999C228.349 62.4999 271.651 62.5 288.971 92.5L405.885 295C423.205 325 401.554 362.5 366.913 362.5H133.087C98.4457 362.5 76.7949 325 94.1154 295L211.029 92.4999Z" fill="url(#paint1_linear_2004_64)"/>
<g clip-path="url(#clip0_2004_64)">
<path fill-rule="evenodd" clip-rule="evenodd" d="M292.925 158.895L209.881 159.049C209.87 153.653 205.215 149.287 199.482 149.298C193.749 149.308 189.109 153.691 189.119 159.087L189.196 168.973C189.433 185.327 190.229 198.848 192.035 209.884C193.832 220.863 196.734 230.116 201.696 237.455C204.533 241.653 207.856 244.975 211.601 247.591C211.439 247.715 211.277 247.839 211.116 247.966C200.533 256.277 195.275 268.834 192.507 284.472C190.15 297.79 189.408 314.491 189.445 334.951C189.455 340.347 194.111 344.713 199.844 344.702C205.577 344.692 210.217 340.309 210.207 334.913C210.177 319.081 210.504 306.24 211.69 295.829L223.528 295.807C229.261 295.797 233.9 291.414 233.89 286.018C233.88 280.622 229.225 276.256 223.492 276.267L215.834 276.281C218.128 269.658 221.05 265.603 224.406 262.968C229.399 259.047 237.335 256.7 251.635 256.674C265.935 256.647 273.797 258.965 278.804 262.867C282.17 265.49 285.107 269.533 287.425 276.148L256.775 276.205C251.042 276.216 246.403 280.599 246.413 285.994C246.423 291.39 251.078 295.756 256.811 295.745L291.501 295.681C292.172 301.412 292.627 307.892 292.905 315.219L241.312 315.315C235.579 315.325 230.94 319.708 230.95 325.104C230.96 330.5 235.615 334.866 241.348 334.855L293.251 334.759C293.261 340.155 297.917 344.521 303.65 344.51C309.383 344.499 314.022 340.116 314.012 334.721C314.006 331.308 313.978 328.007 313.926 324.817C313.664 308.844 312.783 295.388 310.776 284.257C307.958 268.632 302.664 256.09 292.048 247.816C291.877 247.683 291.706 247.552 291.534 247.422C295.256 244.796 298.557 241.469 301.373 237.274C306.311 229.918 309.185 220.655 310.947 209.668C312.717 198.624 313.468 185.099 313.645 168.743C313.68 165.564 313.692 162.27 313.686 158.856C313.676 153.46 309.02 149.095 303.287 149.105C297.554 149.116 292.915 153.499 292.925 158.895ZM251.516 237.134C231.593 237.171 223.874 233.859 219.213 226.963C217.642 224.64 216.22 221.624 214.992 217.661L241.131 217.612C246.864 217.602 251.503 213.219 251.493 207.823C251.483 202.427 246.828 198.061 241.095 198.072L211.409 198.127C210.825 192.416 210.427 185.94 210.185 178.589L292.692 178.436C292.355 189.846 291.637 199.151 290.418 206.757C288.855 216.509 286.571 222.745 283.822 226.84C279.178 233.759 271.465 237.097 251.58 237.134L251.516 237.134Z" fill="url(#paint2_linear_2004_64)"/>
</g>
<defs>
<linearGradient id="paint0_linear_2004_64" x1="250" y1="0" x2="594.5" y2="425.5" gradientUnits="userSpaceOnUse">
<stop stop-color="#EAEAEA"/>
<stop offset="1" stop-color="white"/>
</linearGradient>
<linearGradient id="paint1_linear_2004_64" x1="250" y1="25" x2="359.688" y2="487.375" gradientUnits="userSpaceOnUse">
<stop stop-color="#8044FF"/>
<stop offset="1" stop-color="#46105F"/>
</linearGradient>
<linearGradient id="paint2_linear_2004_64" x1="251.385" y1="149.201" x2="251.747" y2="344.606" gradientUnits="userSpaceOnUse">
<stop stop-color="white"/>
<stop offset="1" stop-color="#DEDEDE"/>
</linearGradient>
<clipPath id="clip0_2004_64">
<rect width="249.134" height="234.486" fill="white" transform="translate(111 149.462) rotate(-0.106222)"/>
</clipPath>
</defs>
</svg>
